<mxfile host="app.diagrams.net" agent="Mozilla/5.0 (Windows NT 10.0; Win64; x64) AppleWebKit/537.36 (KHTML, like Gecko) Chrome/134.0.0.0 Safari/537.36" version="26.1.1">
  <diagram name="Page-1" id="v8-02IjP-lLUOQKRPVKt">
    <mxGraphModel dx="2231" dy="1157" grid="1" gridSize="10" guides="1" tooltips="1" connect="0" arrows="0" fold="1" page="1" pageScale="1" pageWidth="1920" pageHeight="1080" math="0" shadow="0">
      <root>
        <mxCell id="0" />
        <mxCell id="1" parent="0" />
        <mxCell id="53a7npwnXDhlMXjKYg2i-2" value="&lt;font style=&quot;font-size: 36px;&quot;&gt;Burn&lt;/font&gt;" style="rounded=1;whiteSpace=wrap;html=1;fontFamily=Noto Sans;fontSource=https%3A%2F%2Ffonts.googleapis.com%2Fcss%3Ffamily%3DNoto%2BSans;fontSize=11;fillColor=light-dark(#FFFFFF,#660000);strokeColor=none;" parent="1" vertex="1">
          <mxGeometry x="143" y="628" width="400" height="90" as="geometry" />
        </mxCell>
        <mxCell id="4vqjs0dxscNlufr-FWjo-1" value="" style="endArrow=classic;html=1;rounded=0;endFill=1;strokeWidth=5;dashed=1;" edge="1" parent="1">
          <mxGeometry width="50" height="50" relative="1" as="geometry">
            <mxPoint x="120" y="780" as="sourcePoint" />
            <mxPoint x="1800" y="780" as="targetPoint" />
          </mxGeometry>
        </mxCell>
        <mxCell id="4vqjs0dxscNlufr-FWjo-3" value="&lt;font style=&quot;font-size: 30px;&quot;&gt;Crack&lt;/font&gt;" style="rounded=1;whiteSpace=wrap;html=1;fontFamily=Noto Sans;fontSource=https%3A%2F%2Ffonts.googleapis.com%2Fcss%3Ffamily%3DNoto%2BSans;fontSize=11;fillColor=light-dark(#FFFFFF,#CCCC00);strokeColor=none;" vertex="1" parent="1">
          <mxGeometry x="251" y="420" width="109" height="61.16" as="geometry" />
        </mxCell>
        <mxCell id="4vqjs0dxscNlufr-FWjo-4" value="&lt;font style=&quot;font-size: 30px;&quot;&gt;Sizzle&lt;/font&gt;" style="rounded=1;whiteSpace=wrap;html=1;fontFamily=Noto Sans;fontSource=https%3A%2F%2Ffonts.googleapis.com%2Fcss%3Ffamily%3DNoto%2BSans;fontSize=11;fillColor=light-dark(#FFFFFF,#CC6600);strokeColor=none;" vertex="1" parent="1">
          <mxGeometry x="191" y="520" width="119" height="60" as="geometry" />
        </mxCell>
        <mxCell id="4vqjs0dxscNlufr-FWjo-6" value="&lt;font style=&quot;font-size: 36px;&quot;&gt;Burn&lt;/font&gt;" style="rounded=1;whiteSpace=wrap;html=1;fontFamily=Noto Sans;fontSource=https%3A%2F%2Ffonts.googleapis.com%2Fcss%3Ffamily%3DNoto%2BSans;fontSize=11;fillColor=light-dark(#FFFFFF,#660000);strokeColor=none;" vertex="1" parent="1">
          <mxGeometry x="553" y="628" width="400" height="90" as="geometry" />
        </mxCell>
        <mxCell id="4vqjs0dxscNlufr-FWjo-7" value="&lt;font style=&quot;font-size: 30px;&quot;&gt;Sizzle&lt;/font&gt;" style="rounded=1;whiteSpace=wrap;html=1;fontFamily=Noto Sans;fontSource=https%3A%2F%2Ffonts.googleapis.com%2Fcss%3Ffamily%3DNoto%2BSans;fontSize=11;fillColor=light-dark(#FFFFFF,#CC6600);strokeColor=none;" vertex="1" parent="1">
          <mxGeometry x="531" y="520" width="119" height="60" as="geometry" />
        </mxCell>
        <mxCell id="4vqjs0dxscNlufr-FWjo-8" value="&lt;font style=&quot;font-size: 30px;&quot;&gt;Sizzle&lt;/font&gt;" style="rounded=1;whiteSpace=wrap;html=1;fontFamily=Noto Sans;fontSource=https%3A%2F%2Ffonts.googleapis.com%2Fcss%3Ffamily%3DNoto%2BSans;fontSize=11;fillColor=light-dark(#FFFFFF,#CC6600);strokeColor=none;" vertex="1" parent="1">
          <mxGeometry x="741" y="520" width="119" height="60" as="geometry" />
        </mxCell>
        <mxCell id="4vqjs0dxscNlufr-FWjo-9" value="&lt;font style=&quot;font-size: 30px;&quot;&gt;Crack&lt;/font&gt;" style="rounded=1;whiteSpace=wrap;html=1;fontFamily=Noto Sans;fontSource=https%3A%2F%2Ffonts.googleapis.com%2Fcss%3Ffamily%3DNoto%2BSans;fontSize=11;fillColor=light-dark(#FFFFFF,#CCCC00);strokeColor=none;" vertex="1" parent="1">
          <mxGeometry x="471" y="420" width="109" height="61.16" as="geometry" />
        </mxCell>
        <mxCell id="4vqjs0dxscNlufr-FWjo-10" value="&lt;font style=&quot;font-size: 30px;&quot;&gt;Crack&lt;/font&gt;" style="rounded=1;whiteSpace=wrap;html=1;fontFamily=Noto Sans;fontSource=https%3A%2F%2Ffonts.googleapis.com%2Fcss%3Ffamily%3DNoto%2BSans;fontSize=11;fillColor=light-dark(#FFFFFF,#CCCC00);strokeColor=none;" vertex="1" parent="1">
          <mxGeometry x="851" y="420" width="109" height="61.16" as="geometry" />
        </mxCell>
        <mxCell id="4vqjs0dxscNlufr-FWjo-11" value="&lt;font style=&quot;font-size: 36px;&quot;&gt;Burn&lt;/font&gt;" style="rounded=1;whiteSpace=wrap;html=1;fontFamily=Noto Sans;fontSource=https%3A%2F%2Ffonts.googleapis.com%2Fcss%3Ffamily%3DNoto%2BSans;fontSize=11;fillColor=light-dark(#FFFFFF,#660000);strokeColor=none;" vertex="1" parent="1">
          <mxGeometry x="963" y="628" width="400" height="90" as="geometry" />
        </mxCell>
        <mxCell id="4vqjs0dxscNlufr-FWjo-12" value="&lt;font style=&quot;font-size: 36px;&quot;&gt;Burn&lt;/font&gt;" style="rounded=1;whiteSpace=wrap;html=1;fontFamily=Noto Sans;fontSource=https%3A%2F%2Ffonts.googleapis.com%2Fcss%3Ffamily%3DNoto%2BSans;fontSize=11;fillColor=light-dark(#FFFFFF,#660000);strokeColor=none;" vertex="1" parent="1">
          <mxGeometry x="1373" y="628" width="400" height="90" as="geometry" />
        </mxCell>
        <mxCell id="4vqjs0dxscNlufr-FWjo-13" value="&lt;font style=&quot;font-size: 30px;&quot;&gt;Sizzle&lt;/font&gt;" style="rounded=1;whiteSpace=wrap;html=1;fontFamily=Noto Sans;fontSource=https%3A%2F%2Ffonts.googleapis.com%2Fcss%3Ffamily%3DNoto%2BSans;fontSize=11;fillColor=light-dark(#FFFFFF,#CC6600);strokeColor=none;" vertex="1" parent="1">
          <mxGeometry x="1091" y="520" width="119" height="60" as="geometry" />
        </mxCell>
        <mxCell id="4vqjs0dxscNlufr-FWjo-14" value="&lt;font style=&quot;font-size: 30px;&quot;&gt;Sizzle&lt;/font&gt;" style="rounded=1;whiteSpace=wrap;html=1;fontFamily=Noto Sans;fontSource=https%3A%2F%2Ffonts.googleapis.com%2Fcss%3Ffamily%3DNoto%2BSans;fontSize=11;fillColor=light-dark(#FFFFFF,#CC6600);strokeColor=none;" vertex="1" parent="1">
          <mxGeometry x="1291" y="520" width="119" height="60" as="geometry" />
        </mxCell>
        <mxCell id="4vqjs0dxscNlufr-FWjo-15" value="&lt;font style=&quot;font-size: 30px;&quot;&gt;Sizzle&lt;/font&gt;" style="rounded=1;whiteSpace=wrap;html=1;fontFamily=Noto Sans;fontSource=https%3A%2F%2Ffonts.googleapis.com%2Fcss%3Ffamily%3DNoto%2BSans;fontSize=11;fillColor=light-dark(#FFFFFF,#CC6600);strokeColor=none;" vertex="1" parent="1">
          <mxGeometry x="1591" y="520" width="119" height="60" as="geometry" />
        </mxCell>
        <mxCell id="4vqjs0dxscNlufr-FWjo-16" value="&lt;font style=&quot;font-size: 30px;&quot;&gt;Crack&lt;/font&gt;" style="rounded=1;whiteSpace=wrap;html=1;fontFamily=Noto Sans;fontSource=https%3A%2F%2Ffonts.googleapis.com%2Fcss%3Ffamily%3DNoto%2BSans;fontSize=11;fillColor=light-dark(#FFFFFF,#CCCC00);strokeColor=none;" vertex="1" parent="1">
          <mxGeometry x="1071" y="420" width="109" height="61.16" as="geometry" />
        </mxCell>
        <mxCell id="4vqjs0dxscNlufr-FWjo-17" value="&lt;font style=&quot;font-size: 30px;&quot;&gt;Crack&lt;/font&gt;" style="rounded=1;whiteSpace=wrap;html=1;fontFamily=Noto Sans;fontSource=https%3A%2F%2Ffonts.googleapis.com%2Fcss%3Ffamily%3DNoto%2BSans;fontSize=11;fillColor=light-dark(#FFFFFF,#CCCC00);strokeColor=none;" vertex="1" parent="1">
          <mxGeometry x="1471" y="420" width="109" height="61.16" as="geometry" />
        </mxCell>
      </root>
    </mxGraphModel>
  </diagram>
</mxfile>
